<svg width="20" height="20" viewBox="0 0 20 20" fill="none" xmlns="http://www.w3.org/2000/svg">
<path d="M11.25 5.83333C11.4801 5.83333 11.6667 5.64679 11.6667 5.41667C11.6667 5.18655 11.4801 5 11.25 5C11.0199 5 10.8333 5.18655 10.8333 5.41667C10.8333 5.64679 11.0199 5.83333 11.25 5.83333Z" fill="#A1A1AA" stroke="#A1A1AA" stroke-width="1.49866" stroke-linecap="round" stroke-linejoin="round"/>
<path d="M14.5833 9.16668C14.8134 9.16668 15 8.98013 15 8.75001C15 8.51989 14.8134 8.33334 14.5833 8.33334C14.3532 8.33334 14.1667 8.51989 14.1667 8.75001C14.1667 8.98013 14.3532 9.16668 14.5833 9.16668Z" fill="#A1A1AA" stroke="#A1A1AA" stroke-width="1.49866" stroke-linecap="round" stroke-linejoin="round"/>
<path d="M7.08333 6.66668C7.31345 6.66668 7.5 6.48013 7.5 6.25001C7.5 6.01989 7.31345 5.83334 7.08333 5.83334C6.85321 5.83334 6.66666 6.01989 6.66666 6.25001C6.66666 6.48013 6.85321 6.66668 7.08333 6.66668Z" fill="#A1A1AA" stroke="#A1A1AA" stroke-width="1.49866" stroke-linecap="round" stroke-linejoin="round"/>
<path d="M5.41667 10.8333C5.64679 10.8333 5.83333 10.6468 5.83333 10.4167C5.83333 10.1865 5.64679 10 5.41667 10C5.18655 10 5 10.1865 5 10.4167C5 10.6468 5.18655 10.8333 5.41667 10.8333Z" fill="#A1A1AA" stroke="#A1A1AA" stroke-width="1.49866" stroke-linecap="round" stroke-linejoin="round"/>
<path d="M10 1.66666C5.41667 1.66666 1.66667 5.41666 1.66667 9.99999C1.66667 14.5833 5.41667 18.3333 10 18.3333C10.7717 18.3333 11.3733 17.7117 11.3733 16.9267C11.3733 16.5625 11.2233 16.2308 11.0092 15.9892C10.7675 15.7483 10.6442 15.4458 10.6442 15.0517C10.641 14.8682 10.6748 14.6861 10.7435 14.516C10.8123 14.3459 10.9145 14.1914 11.0443 14.0617C11.174 13.932 11.3285 13.8298 11.4985 13.761C11.6686 13.6923 11.8508 13.6585 12.0342 13.6617H13.6975C16.24 13.6617 18.3267 11.5758 18.3267 9.03332C18.3042 5.00999 14.5508 1.66666 10 1.66666Z" stroke="#A1A1AA" stroke-width="1.49866" stroke-linecap="round" stroke-linejoin="round"/>
</svg>
