<svg width="20" height="20" viewBox="0 0 20 20" fill="none" xmlns="http://www.w3.org/2000/svg">
<path d="M4.99996 11.6666L6.24996 9.24996C6.38585 8.98007 6.59256 8.75221 6.84797 8.59075C7.10338 8.42928 7.39787 8.34029 7.69996 8.33329H16.6666M16.6666 8.33329C16.9212 8.33284 17.1726 8.39074 17.4013 8.50253C17.6301 8.61432 17.8302 8.77703 17.9863 8.97818C18.1424 9.17933 18.2503 9.41357 18.3018 9.66292C18.3533 9.91227 18.3469 10.1701 18.2833 10.4166L17 15.4166C16.9071 15.7763 16.6968 16.0946 16.4024 16.321C16.108 16.5475 15.7464 16.6691 15.375 16.6666H3.33329C2.89127 16.6666 2.46734 16.491 2.15478 16.1785C1.84222 15.8659 1.66663 15.442 1.66663 15V4.16662C1.66663 3.7246 1.84222 3.30067 2.15478 2.98811C2.46734 2.67555 2.89127 2.49996 3.33329 2.49996H6.58329C6.86203 2.49723 7.137 2.56445 7.38304 2.69547C7.62908 2.8265 7.83833 3.01715 7.99163 3.24996L8.66662 4.24996C8.81838 4.4804 9.02498 4.66956 9.26788 4.80046C9.51077 4.93136 9.78237 4.99991 10.0583 4.99996H15C15.442 4.99996 15.8659 5.17555 16.1785 5.48811C16.491 5.80067 16.6666 6.2246 16.6666 6.66662V8.33329Z" stroke="#A1A1AA" stroke-width="1.66667" stroke-linecap="round" stroke-linejoin="round"/>
</svg>
