<svg width="20" height="20" viewBox="0 0 20 20" fill="none" xmlns="http://www.w3.org/2000/svg">
<g clip-path="url(#clip0_3313_3963)">
<path d="M9.99984 18.3333C14.6022 18.3333 18.3332 14.6023 18.3332 9.99996C18.3332 5.39759 14.6022 1.66663 9.99984 1.66663C5.39746 1.66663 1.6665 5.39759 1.6665 9.99996C1.6665 14.6023 5.39746 18.3333 9.99984 18.3333Z" stroke="#A1A1AA" stroke-width="1.66667" stroke-linecap="round" stroke-linejoin="round"/>
<path d="M10 10.8334C11.3807 10.8334 12.5 9.71409 12.5 8.33337C12.5 6.95266 11.3807 5.83337 10 5.83337C8.61929 5.83337 7.5 6.95266 7.5 8.33337C7.5 9.71409 8.61929 10.8334 10 10.8334Z" stroke="#A1A1AA" stroke-width="1.66667" stroke-linecap="round" stroke-linejoin="round"/>
<path d="M5.8335 17.2183V15.8333C5.8335 15.3913 6.00909 14.9673 6.32165 14.6548C6.63421 14.3422 7.05814 14.1666 7.50016 14.1666H12.5002C12.9422 14.1666 13.3661 14.3422 13.6787 14.6548C13.9912 14.9673 14.1668 15.3913 14.1668 15.8333V17.2183" stroke="#A1A1AA" stroke-width="1.66667" stroke-linecap="round" stroke-linejoin="round"/>
</g>
<defs>
<clipPath id="clip0_3313_3963">
<rect width="20" height="20" fill="white"/>
</clipPath>
</defs>
</svg>
