<svg width="14" height="14" viewBox="0 0 14 14" fill="none" xmlns="http://www.w3.org/2000/svg">
<g clip-path="url(#clip0_3313_4728)">
<path d="M9.32373 7.57553L12.3673 9.60459C12.4112 9.63379 12.4622 9.65054 12.5148 9.65306C12.5675 9.65558 12.6198 9.64377 12.6663 9.61889C12.7127 9.59402 12.7516 9.557 12.7787 9.5118C12.8058 9.46659 12.8201 9.41488 12.8201 9.36218V4.58613C12.8201 4.53486 12.8066 4.4845 12.7809 4.44012C12.7553 4.39575 12.7183 4.35894 12.6739 4.3334C12.6294 4.30786 12.579 4.29451 12.5278 4.29468C12.4765 4.29485 12.4262 4.30855 12.3819 4.33439L9.32373 6.11871" stroke="#10B981" stroke-width="1.16546" stroke-linecap="round" stroke-linejoin="round"/>
<path d="M8.15828 3.49634H2.33099C1.68732 3.49634 1.16553 4.01813 1.16553 4.6618V9.32363C1.16553 9.96729 1.68732 10.4891 2.33099 10.4891H8.15828C8.80194 10.4891 9.32374 9.96729 9.32374 9.32363V4.6618C9.32374 4.01813 8.80194 3.49634 8.15828 3.49634Z" stroke="#10B981" stroke-width="1.16546" stroke-linecap="round" stroke-linejoin="round"/>
</g>
<defs>
<clipPath id="clip0_3313_4728">
<rect width="13.9855" height="13.9855" fill="white"/>
</clipPath>
</defs>
</svg>
