<svg width="12" height="12" viewBox="0 0 12 12" fill="none" xmlns="http://www.w3.org/2000/svg">
<g clip-path="url(#clip0_3160_8128)">
<path d="M9.99999 1.00049V3.00041M11.0001 2.00045H8.99991M5.50811 1.40769C5.52953 1.293 5.5904 1.18941 5.68017 1.11486C5.76994 1.04032 5.88296 0.999512 5.99965 0.999512C6.11634 0.999512 6.22936 1.04032 6.31912 1.11486C6.40889 1.18941 6.46976 1.293 6.49119 1.40769L7.01673 4.18658C7.05405 4.38415 7.15008 4.56588 7.29227 4.70805C7.43445 4.85022 7.6162 4.94623 7.81379 4.98355L10.593 5.50903C10.7077 5.53045 10.8113 5.59131 10.8859 5.68107C10.9604 5.77083 11.0012 5.88383 11.0012 6.00051C11.0012 6.11719 10.9604 6.23019 10.8859 6.31995C10.8113 6.40971 10.7077 6.47057 10.593 6.49199L7.81379 7.01747C7.6162 7.05479 7.43445 7.1508 7.29227 7.29298C7.15008 7.43515 7.05405 7.61687 7.01673 7.81444L6.49119 10.5933C6.46976 10.708 6.40889 10.8116 6.31912 10.8862C6.22936 10.9607 6.11634 11.0015 5.99965 11.0015C5.88296 11.0015 5.76994 10.9607 5.68017 10.8862C5.5904 10.8116 5.52953 10.708 5.50811 10.5933L4.98257 7.81444C4.94524 7.61687 4.84922 7.43515 4.70703 7.29298C4.56484 7.1508 4.38309 7.05479 4.1855 7.01747L1.40628 6.49199C1.29157 6.47057 1.18797 6.40971 1.11341 6.31995C1.03886 6.23019 0.998047 6.11719 0.998047 6.00051C0.998047 5.88383 1.03886 5.77083 1.11341 5.68107C1.18797 5.59131 1.29157 5.53045 1.40628 5.50903L4.1855 4.98355C4.38309 4.94623 4.56484 4.85022 4.70703 4.70805C4.84922 4.56588 4.94524 4.38415 4.98257 4.18658L5.50811 1.40769ZM2.99943 10.0001C2.99943 10.5524 2.55168 11.0001 1.99935 11.0001C1.44702 11.0001 0.999268 10.5524 0.999268 10.0001C0.999268 9.44787 1.44702 9.00017 1.99935 9.00017C2.55168 9.00017 2.99943 9.44787 2.99943 10.0001Z" stroke="#A1A1AA" stroke-width="2" stroke-linecap="round"/>
</g>
<defs>
<clipPath id="clip0_3160_8128">
<rect width="12" height="12" fill="white"/>
</clipPath>
</defs>
</svg>
